<?xml version="1.0" encoding="utf-8"?>
<!-- Generator: Adobe Illustrator 22.1.0, SVG Export Plug-In . SVG Version: 6.00 Build 0)  -->
<svg version="1.1" id="Layer_1" xmlns="http://www.w3.org/2000/svg" xmlns:xlink="http://www.w3.org/1999/xlink" x="0px" y="0px"
	 viewBox="0 0 216 190" style="enable-background:new 0 0 216 190;" xml:space="preserve">
<style type="text/css">
	.st0{fill:#FF9015;}
	.st1{fill:#FF6C0E;}
</style>
<path class="st0" d="M78,59.4c-0.7,0.4-1.4,0.8-2.2,1.2c0.7-0.4,1.3-0.7,2-1C78,59.5,78,59.4,78,59.4"/>
<path class="st1" d="M122.3,47.9c0,0-14.3,0.4-27.1,4.8c8.6-2.6,17.7-4.2,27-4.7C122.3,47.9,122.3,47.9,122.3,47.9"/>
<path class="st1" d="M134.3,48.1c6.7,0.4,13.3,1.4,19.7,2.9C141.7,47.6,134.6,48.1,134.3,48.1"/>
<path class="st0" d="M38.8,94.9c-6.5,12.1-7.6,23.1-6.2,32.2c7.3-11.5,16.7-21.6,27.6-29.7c4.7-21.5,16.3-36,17.7-37.8
	c-0.7,0.3-1.3,0.7-2,1C63.6,67.6,47.7,78.3,38.8,94.9"/>
<path class="st0" d="M147.4,70.2c0,2.4-0.1,4.8-0.4,7.2c10.6,2,20.6,5.4,29.9,10.2c0.1-1.2,0.2-2.3,0.3-3.4
	c0.6-21.2-15.5-30.9-22.5-32.9c-0.2-0.1-0.5-0.1-0.7-0.2c-6.4-1.5-12.9-2.5-19.7-2.9c0,0,0,0,0,0S147.4,49.8,147.4,70.2"/>
<path class="st0" d="M75.6,87.8c9.9-5.1,20.6-8.8,32-10.7c6.2-17.8,13.7-27.8,14.6-29.1c-9.4,0.5-18.4,2.1-27,4.7
	c-0.4,0.1-0.7,0.3-1.1,0.4C94.1,53.1,82,66.1,75.6,87.8"/>
<path class="st0" d="M45.3,152.3c1.9,1.7,4,3.1,6.2,4.1c3.1-6.9,6.9-13.3,11.4-19.2c-2.7-5.1-4.5-11.9-4.7-20.8
	c0-2.8,0.1-5.6,0.3-8.2c-9.4,7.3-17.6,16.2-24.2,26.1C37.2,143.1,42,149.3,45.3,152.3"/>
<path class="st0" d="M101.3,101.7c0.9-5.3,2-10.2,3.2-14.7C93.3,89.2,82.7,93.2,73,98.6c-1.1,6.2-1.6,13-1.2,20.2
	c0.1,2.6,0.4,5,0.9,7.4c8-7.8,17.4-14.2,27.8-18.9C100.8,105.4,101,103.6,101.3,101.7"/>
<path class="st0" d="M141.2,98.8c10.9,0.1,21.5,2,31.3,5.4c1.1-2.9,2.1-5.7,2.8-8.4c-9.3-4.5-19.4-7.8-29.9-9.5
	C144.3,90.5,142.9,94.7,141.2,98.8"/>
<path class="st1" d="M83.1,153.1c0,0-13-2-20.2-15.8c-4.5,5.9-8.3,12.3-11.4,19.2C63.2,162,77.9,159.2,83.1,153.1"/>
<path class="st1" d="M109.4,132.3c-9.2-1.4-10.4-11.8-8.8-25c-10.4,4.7-19.7,11.1-27.8,18.9c4,19.1,19.4,29.2,30.6,29.9
	c34,2,59.2-26.6,69.2-51.8c-9.8-3.4-20.3-5.3-31.3-5.4C133,118.5,118.2,133.6,109.4,132.3"/>
</svg>
